<svg xmlns="http://www.w3.org/2000/svg" xmlns:xlink="http://www.w3.org/1999/xlink" version="1.1" x="0px" y="0px" viewBox="0 0 100 125" enable-background="new 0 0 100 100" xml:space="preserve"><g><g><path d="M19,51.042c-4-4.126-9,4.126-13,0c0-0.695,0-1.389,0-2.084c4,4.126,9-4.126,13,0C19,49.653,19,50.347,19,51.042z"/></g><g><path d="M56,51.042c-4-4.126-8,4.126-12,0c0-0.695,0-1.389,0-2.084c4,4.126,8-4.126,12,0C56,49.653,56,50.347,56,51.042z"/></g><g><path d="M44,51.042c-4-4.126-9,4.126-13,0c0-0.695,0-1.389,0-2.084c4,4.126,9-4.126,13,0C44,49.653,44,50.347,44,51.042z"/></g><g><path d="M31,51.042c-4-4.126-8,4.126-12,0c0-0.695,0-1.389,0-2.084c4,4.126,8-4.126,12,0C31,49.653,31,50.347,31,51.042z"/></g><g><path d="M69,51.042c-4-4.126-9,4.126-13,0c0-0.695,0-1.389,0-2.084c4,4.126,9-4.126,13,0C69,49.653,69,50.347,69,51.042z"/></g><g><path d="M81,51.042c-4-4.126-8,4.126-12,0c0-0.695,0-1.389,0-2.084c4,4.126,8-4.126,12,0C81,49.653,81,50.347,81,51.042z"/></g><g><path d="M94,51.042c-4-4.126-9,4.126-13,0c0-0.695,0-1.389,0-2.084c4,4.126,9-4.126,13,0C94,49.653,94,50.347,94,51.042z"/></g></g><text x="0" y="115" fill="#000000" font-size="5px" font-weight="bold" font-family="'Helvetica Neue', Helvetica, Arial-Unicode, Arial, Sans-serif">Created by Ecem Afacan</text><text x="0" y="120" fill="#000000" font-size="5px" font-weight="bold" font-family="'Helvetica Neue', Helvetica, Arial-Unicode, Arial, Sans-serif">from the Noun Project</text></svg>